<?xml version="1.0" encoding="UTF-8" standalone="no"?>
<!-- Created with Inkscape (http://www.inkscape.org/) -->

<svg
   xmlns:dc="http://purl.org/dc/elements/1.1/"
   xmlns:cc="http://creativecommons.org/ns#"
   xmlns:rdf="http://www.w3.org/1999/02/22-rdf-syntax-ns#"
   xmlns:svg="http://www.w3.org/2000/svg"
   xmlns="http://www.w3.org/2000/svg"
   xmlns:sodipodi="http://sodipodi.sourceforge.net/DTD/sodipodi-0.dtd"
   xmlns:inkscape="http://www.inkscape.org/namespaces/inkscape"
   width="94.142853"
   height="94.142853"
   viewBox="0 0 94.14285 94.142852"
   id="svg48042"
   version="1.1"
   inkscape:version="0.91 r13725"
   sodipodi:docname="nav-devs.svg">
  <defs
     id="defs48044" />
  <sodipodi:namedview
     id="base"
     pagecolor="#ffffff"
     bordercolor="#666666"
     borderopacity="1.0"
     inkscape:pageopacity="0.0"
     inkscape:pageshadow="2"
     inkscape:zoom="1"
     inkscape:cx="-11.37141"
     inkscape:cy="75.907192"
     inkscape:document-units="px"
     inkscape:current-layer="layer1"
     showgrid="true"
     fit-margin-top="0"
     fit-margin-left="0"
     fit-margin-right="0"
     fit-margin-bottom="0"
     inkscape:window-width="2560"
     inkscape:window-height="1376"
     inkscape:window-x="0"
     inkscape:window-y="27"
     inkscape:window-maximized="1"
     units="px"
     inkscape:snap-bbox="true"
     inkscape:snap-bbox-midpoints="true"
     inkscape:bbox-nodes="true"
     inkscape:bbox-paths="true">
    <inkscape:grid
       type="xygrid"
       id="grid48871"
       originx="-3.6083983e-06"
       originy="0.14284787" />
  </sodipodi:namedview>
  <metadata
     id="metadata48047">
    <rdf:RDF>
      <cc:Work
         rdf:about="">
        <dc:format>image/svg+xml</dc:format>
        <dc:type
           rdf:resource="http://purl.org/dc/dcmitype/StillImage" />
        <dc:title></dc:title>
      </cc:Work>
    </rdf:RDF>
  </metadata>
  <g
     inkscape:label="Layer 1"
     inkscape:groupmode="layer"
     id="layer1"
     transform="translate(-446.69823,-860.95734)">
    <g
       transform="translate(160.26965,499.59515)"
       id="g48765">
      <circle
         style="color:#000000;clip-rule:nonzero;display:inline;overflow:visible;visibility:visible;opacity:1;isolation:auto;mix-blend-mode:normal;color-interpolation:sRGB;color-interpolation-filters:linearRGB;solid-color:#000000;solid-opacity:1;fill:#4e9a06;fill-opacity:1;fill-rule:nonzero;stroke:none;stroke-width:1;stroke-linecap:butt;stroke-linejoin:miter;stroke-miterlimit:4;stroke-dasharray:none;stroke-dashoffset:0;stroke-opacity:1;marker:none;marker-start:none;marker-mid:none;marker-end:none;paint-order:normal;color-rendering:auto;image-rendering:auto;shape-rendering:auto;text-rendering:auto;enable-background:accumulate"
         id="circle43602"
         cx="333.5"
         cy="408.43362"
         r="47.071426" />
      <g
         style="display:inline"
         transform="matrix(-2,0,0,2,941.00042,-178.66898)"
         inkscape:label="builder"
         id="g27305">
        <rect
           y="285.01559"
           x="295.50021"
           height="16"
           width="16"
           id="rect27307"
           style="display:inline;opacity:0;fill:#ffffff;fill-opacity:1;stroke:none" />
        <path
           id="path27321"
           style="color:#000000;clip-rule:nonzero;display:inline;overflow:visible;visibility:visible;opacity:1;isolation:auto;mix-blend-mode:normal;color-interpolation:sRGB;color-interpolation-filters:linearRGB;solid-color:#000000;solid-opacity:1;fill:#ffffff;fill-opacity:1;fill-rule:nonzero;stroke:none;stroke-width:1;stroke-linecap:butt;stroke-linejoin:miter;stroke-miterlimit:4;stroke-dasharray:none;stroke-dashoffset:0;stroke-opacity:1;marker:none;marker-start:none;marker-mid:none;marker-end:none;paint-order:normal;color-rendering:auto;image-rendering:auto;shape-rendering:auto;text-rendering:auto;enable-background:accumulate"
           d="m 299.50023,293.01558 1.06629,1.91069 -0.98216,2.08931 -0.53125,0 0.44712,-2.46875 -1.45313,-0.26562 0.0194,1.73011 -0.57544,-0.004 -0.44398,-1.67945 -0.57812,0.1562 0.0157,2.5 -0.5625,0.0312 -0.82813,-2.5625 1.39553,-1.44525 0.006,-0.98548 2.99242,-0.006 z m 3.40623,-6.01019 a 1.5277282,1.5277282 0 0 1 1.52832,1.52734 1.5277282,1.5277282 0 0 1 -0.12305,0.59473 l 1.49902,1.82031 a 2.5,2.5 0 0 1 0.18946,-0.01 2.5,2.5 0 0 1 2.5,2.5 2.5,2.5 0 0 1 -2.5,2.5 2.5,2.5 0 0 1 -2.5,-2.5 2.5,2.5 0 0 1 0.29394,-1.17089 l -0.87793,-2.20704 a 1.5277282,1.5277282 0 0 1 -0.01,9.8e-4 1.5277282,1.5277282 0 0 1 -1.35645,-0.82715 l -1.95019,0.44824 a 1.5277282,1.5277282 0 0 1 -1.51075,1.30664 1.5277282,1.5277282 0 0 1 -1.52734,-1.52733 1.5277282,1.5277282 0 0 1 1.52734,-1.52832 1.5277282,1.5277282 0 0 1 1.36817,0.85351 l 1.94239,-0.49805 a 1.5277282,1.5277282 0 0 1 1.50683,-1.2832 z m 4.10939,9.60003 1.42579,1.41016 0.9082,0.2207 c 0.0884,0.0276 0.15625,0.13433 0.15625,0.25586 l 0,1.52344 -7.00586,0 0,-1.54492 c 0,-0.14377 0.0693,-0.19958 0.19922,-0.23438 l 0.77539,-0.2207 1.54492,-1.40039 a 3.328125,3.328125 0 0 0 0.98047,0.15234 3.328125,3.328125 0 0 0 1.01562,-0.16211 z"
           inkscape:connector-curvature="0" />
      </g>
    </g>
  </g>
</svg>
