<?xml version="1.0" encoding="UTF-8" standalone="no"?>
<svg
   viewBox="0 0 128 128"
   style="display:inline;enable-background:new"
   version="1.0"
   id="svg11300"
   height="128"
   width="128"
   sodipodi:docname="org.freedesktop.fwupd.svg"
   inkscape:version="1.4.3 (0d15f75042, 2025-12-25)"
   xmlns:inkscape="http://www.inkscape.org/namespaces/inkscape"
   xmlns:sodipodi="http://sodipodi.sourceforge.net/DTD/sodipodi-0.dtd"
   xmlns:xlink="http://www.w3.org/1999/xlink"
   xmlns="http://www.w3.org/2000/svg"
   xmlns:svg="http://www.w3.org/2000/svg"
   xmlns:rdf="http://www.w3.org/1999/02/22-rdf-syntax-ns#"
   xmlns:cc="http://creativecommons.org/ns#"
   xmlns:dc="http://purl.org/dc/elements/1.1/">
  <sodipodi:namedview
     pagecolor="#ffffff"
     bordercolor="#666666"
     borderopacity="1"
     objecttolerance="10"
     gridtolerance="10"
     guidetolerance="10"
     inkscape:pageopacity="0"
     inkscape:pageshadow="2"
     inkscape:window-width="3840"
     inkscape:window-height="1531"
     id="namedview21"
     showgrid="false"
     inkscape:zoom="8"
     inkscape:cx="77.125"
     inkscape:cy="59.5"
     inkscape:window-x="0"
     inkscape:window-y="0"
     inkscape:window-maximized="1"
     inkscape:current-layer="text832"
     inkscape:showpageshadow="2"
     inkscape:pagecheckerboard="0"
     inkscape:deskcolor="#d1d1d1" />
  <title
     id="title4162">Adwaita Icon Template</title>
  <defs
     id="defs3">
    <linearGradient
       id="linearGradient1494">
      <stop
         id="stop1490"
         offset="0"
         style="stop-color:#babdb6;stop-opacity:1;" />
      <stop
         id="stop1492"
         offset="1"
         style="stop-color:#babdb6;stop-opacity:0;" />
    </linearGradient>
    <linearGradient
       gradientUnits="userSpaceOnUse"
       y2="20"
       x2="280"
       y1="172"
       x1="280"
       id="linearGradient1496"
       xlink:href="#linearGradient1494" />
  </defs>
  <metadata
     id="metadata4">
    <rdf:RDF>
      <cc:Work
         rdf:about="">
        <dc:format>image/svg+xml</dc:format>
        <dc:type
           rdf:resource="http://purl.org/dc/dcmitype/StillImage" />
        <dc:creator>
          <cc:Agent>
            <dc:title>GNOME Design Team</dc:title>
          </cc:Agent>
        </dc:creator>
        <dc:source />
        <cc:license
           rdf:resource="http://creativecommons.org/licenses/by-sa/4.0/" />
        <dc:title>Adwaita Icon Template</dc:title>
        <dc:subject>
          <rdf:Bag />
        </dc:subject>
        <dc:date />
        <dc:rights>
          <cc:Agent>
            <dc:title />
          </cc:Agent>
        </dc:rights>
        <dc:publisher>
          <cc:Agent>
            <dc:title />
          </cc:Agent>
        </dc:publisher>
        <dc:identifier />
        <dc:relation />
        <dc:language />
        <dc:coverage />
        <dc:description />
        <dc:contributor>
          <cc:Agent>
            <dc:title />
          </cc:Agent>
        </dc:contributor>
      </cc:Work>
      <cc:License
         rdf:about="http://creativecommons.org/licenses/by-sa/4.0/">
        <cc:permits
           rdf:resource="http://creativecommons.org/ns#Reproduction" />
        <cc:permits
           rdf:resource="http://creativecommons.org/ns#Distribution" />
        <cc:requires
           rdf:resource="http://creativecommons.org/ns#Notice" />
        <cc:requires
           rdf:resource="http://creativecommons.org/ns#Attribution" />
        <cc:permits
           rdf:resource="http://creativecommons.org/ns#DerivativeWorks" />
        <cc:requires
           rdf:resource="http://creativecommons.org/ns#ShareAlike" />
      </cc:License>
    </rdf:RDF>
  </metadata>
  <path
     style="color:#000000;overflow:visible;opacity:1;fill:#f6f6f4;fill-opacity:1;stroke:#989994;stroke-width:1;stroke-linecap:butt;stroke-linejoin:round;stroke-miterlimit:4;stroke-dasharray:none;stroke-dashoffset:0;stroke-opacity:1;paint-order:fill markers stroke"
     d="m 25.720703,17.548828 v 2.607422 h -4.683594 v 17.324219 h 13.78711 V 20.15625 h -4.683594 v -2.607422 z"
     id="rect4643"
     inkscape:connector-curvature="0" />
  <path
     style="color:#000000;overflow:visible;opacity:1;fill:#f6f6f4;fill-opacity:1;stroke:#989994;stroke-width:1;stroke-linecap:butt;stroke-linejoin:round;stroke-miterlimit:4;stroke-dasharray:none;stroke-dashoffset:0;stroke-opacity:1;paint-order:fill markers stroke"
     d="M 49.638672,17.548828 V 20.15625 H 44.953125 V 37.480469 H 58.742188 V 20.15625 h -4.683594 v -2.607422 z"
     id="rect4643-6"
     inkscape:connector-curvature="0" />
  <path
     style="color:#000000;overflow:visible;opacity:1;fill:#f6f6f4;fill-opacity:1;stroke:#989994;stroke-width:1;stroke-linecap:butt;stroke-linejoin:round;stroke-miterlimit:4;stroke-dasharray:none;stroke-dashoffset:0;stroke-opacity:1;paint-order:fill markers stroke"
     d="M 73.556641,17.548828 V 20.15625 H 68.871094 V 37.480469 H 82.660156 V 20.15625 h -4.685547 v -2.607422 z"
     id="rect4643-3"
     inkscape:connector-curvature="0" />
  <path
     style="color:#000000;overflow:visible;opacity:1;fill:#f6f6f4;fill-opacity:1;stroke:#989994;stroke-width:1;stroke-linecap:butt;stroke-linejoin:round;stroke-miterlimit:4;stroke-dasharray:none;stroke-dashoffset:0;stroke-opacity:1;paint-order:fill markers stroke"
     d="M 97.472656,17.548828 V 20.15625 H 92.789062 V 37.480469 H 106.57617 V 20.15625 h -4.68359 v -2.607422 z"
     id="rect4643-2"
     inkscape:connector-curvature="0" />
  <path
     style="color:#000000;overflow:visible;opacity:1;fill:#f6f6f4;fill-opacity:1;stroke:#989994;stroke-width:1;stroke-linecap:butt;stroke-linejoin:round;stroke-miterlimit:4;stroke-dasharray:none;stroke-dashoffset:0;stroke-opacity:1;paint-order:fill markers stroke"
     d="m 92.789062,90.310547 v 17.324223 h 4.683594 v 2.60742 h 4.419924 v -2.60742 h 4.68359 V 90.310547 Z"
     id="rect4643-27"
     inkscape:connector-curvature="0" />
  <path
     style="color:#000000;overflow:visible;opacity:1;fill:#f6f6f4;fill-opacity:1;stroke:#989994;stroke-width:1;stroke-linecap:butt;stroke-linejoin:round;stroke-miterlimit:4;stroke-dasharray:none;stroke-dashoffset:0;stroke-opacity:1;paint-order:fill markers stroke"
     d="m 68.871094,90.310547 v 17.324223 h 4.685547 v 2.60742 h 4.417968 v -2.60742 h 4.685547 V 90.310547 Z"
     id="rect4643-6-3"
     inkscape:connector-curvature="0" />
  <path
     style="color:#000000;overflow:visible;opacity:1;fill:#f6f6f4;fill-opacity:1;stroke:#989994;stroke-width:1;stroke-linecap:butt;stroke-linejoin:round;stroke-miterlimit:4;stroke-dasharray:none;stroke-dashoffset:0;stroke-opacity:1;paint-order:fill markers stroke"
     d="m 44.953125,90.310547 v 17.324223 h 4.685547 v 2.60742 h 4.419922 v -2.60742 h 4.683594 V 90.310547 Z"
     id="rect4643-3-6"
     inkscape:connector-curvature="0" />
  <path
     style="color:#000000;overflow:visible;opacity:1;fill:#f6f6f4;fill-opacity:1;stroke:#989994;stroke-width:1;stroke-linecap:butt;stroke-linejoin:round;stroke-miterlimit:4;stroke-dasharray:none;stroke-dashoffset:0;stroke-opacity:1;paint-order:fill markers stroke"
     d="m 21.037109,90.310547 v 17.324223 h 4.683594 v 2.60742 h 4.419922 v -2.60742 h 4.683594 V 90.310547 Z"
     id="rect4643-2-1"
     inkscape:connector-curvature="0" />
  <rect
     ry="7.6098905"
     rx="7.6980834"
     y="25.731514"
     x="14.039638"
     height="76.49028"
     width="99.979324"
     id="rect920"
     style="opacity:1;vector-effect:none;fill:#3e3a47;fill-opacity:1;stroke:#989994;stroke-width:3.9915576;stroke-linecap:round;stroke-linejoin:round;stroke-miterlimit:4;stroke-dasharray:none;stroke-dashoffset:0;stroke-opacity:1" />
  <g
     transform="rotate(-30,82.546211,221.81151)"
     id="g1710" />
  <g
     id="g1480"
     style="fill:url(#linearGradient1496);fill-opacity:1"
     transform="translate(0,-172)" />
  <g
     id="text832"
     style="opacity:1">
    <path
       style="font-size:17.9885px;line-height:8.99424px;font-family:'Petyka - Retro Computer___SHORT';-inkscape-font-specification:'Petyka - Retro Computer___SHORT';letter-spacing:0px;word-spacing:0px;baseline-shift:baseline;display:inline;overflow:visible;vector-effect:none;fill:#dedfda;enable-background:accumulate;stop-color:#000000;stop-opacity:1"
       d="m 26.912789,56.017827 h 12.999484 v 2.599897 H 29.512686 v 2.599897 h 7.79969 v 2.599897 h -7.79969 v 5.16466 h -2.599897 z m 15.195343,0 h 2.599897 v 7.799691 h 2.599897 v 2.599897 h -2.599897 v 2.564763 h -2.599897 z m 10.399587,0 h 2.599897 v 12.964351 h -2.599897 v -2.564763 h -2.599896 v -2.599897 h 2.599896 z m -5.199793,5.199794 h 2.599897 v 2.599897 h -2.599897 z m 9.995549,-5.199794 h 2.599897 v 10.399588 h -2.599897 z m 10.399587,0 h 2.599897 v 10.399588 h -2.599897 z m -7.79969,10.399588 h 7.79969 v 2.564763 h -7.79969 z M 72.498818,56.017827 h 10.399587 v 2.599897 h -7.79969 v 2.599897 h 7.79969 v 2.599897 h -7.79969 v 5.16466 h -2.599897 z m 10.399587,2.599897 h 2.599897 v 2.599897 h -2.599897 z m 4.795756,-2.599897 h 10.399587 v 2.599897 h -7.79969 v 7.799691 h 7.79969 v 2.564763 H 87.694161 Z m 10.399587,2.599897 h 2.599902 v 7.799691 h -2.599902 z"
       id="path3" />
    <path
       style="font-size:17.9885px;line-height:8.99424px;font-family:'Petyka - Retro Computer___SHORT';-inkscape-font-specification:'Petyka - Retro Computer___SHORT';letter-spacing:0px;word-spacing:0px;baseline-shift:baseline;display:inline;overflow:visible;vector-effect:none;fill:#6b6d67;enable-background:accumulate;stop-color:#000000;stop-opacity:1"
       d="m 26.6875,55.792969 v 13.414062 h 3.050781 v -5.164062 h 7.798828 v -3.050782 h -7.798828 v -2.15039 h 10.398438 v -3.048828 z m 15.195312,0 v 13.414062 h 3.050782 v -2.564453 h 2.599609 v -2.599609 h 2.150391 v 2.599609 h 2.599609 v 2.564453 h 3.048828 V 55.792969 h -3.048828 v 7.798828 h -2.150391 v -2.59961 h -3.048828 v 2.59961 h -2.15039 v -7.798828 z m 15.195313,0 v 10.849609 h 2.599609 v 2.564453 h 8.25 v -2.564453 h 2.59961 V 55.792969 h -3.048828 v 10.40039 h -7.34961 v -10.40039 z m 15.195312,0 v 13.414062 h 3.050782 v -5.164062 h 7.798828 v -2.59961 h 2.599609 v -3.050781 h -2.599609 v -2.599609 z m 15.195313,0 v 13.414062 h 10.849609 v -2.564453 h 2.599611 v -8.25 H 98.318359 V 55.792969 Z M 27.136719,56.242187 H 39.6875 v 2.150391 H 29.287109 v 3.050781 h 7.800782 v 2.148438 h -7.800782 v 5.166015 h -2.15039 z m 15.195312,0 h 2.150391 v 7.800782 h 2.601562 v 2.15039 h -2.601562 v 2.564453 h -2.150391 z m 10.400391,0 h 2.15039 v 12.515625 h -2.15039 v -2.564453 h -2.59961 v -2.15039 h 2.59961 z m 4.796875,0 h 2.148437 v 9.951172 h -2.148437 z m 10.398437,0 h 2.150391 v 9.951172 h -2.150391 z m 4.796875,0 h 9.949219 v 2.150391 h -7.800781 v 3.050781 h 7.800781 v 2.148438 h -7.800781 v 5.166015 h -2.148438 z m 15.195313,0 h 9.949219 v 2.150391 h -7.800782 v 8.25 h 7.800782 v 2.115234 h -9.949219 z m -12.595703,2.59961 h 7.349609 v 2.15039 h -7.349609 z m 7.798828,0 h 2.15039 v 2.15039 h -2.15039 z m 7.396484,0 h 7.34961 v 7.351562 h -7.34961 z m 7.798828,0 h 2.150391 v 7.351562 h -2.150391 z m -50.785156,2.601562 h 2.150391 v 2.148438 h -2.150391 z m 12.595703,5.199219 h 7.34961 v 2.115234 h -7.34961 z"
       id="path4" />
  </g>
  <g
     id="text832-7"
     style="font-size:12.1926px;line-height:6.53177px;font-family:Cantarell;-inkscape-font-specification:Cantarell;letter-spacing:0px;word-spacing:0px;fill:#dedfda;stroke:#6b6d67;stroke-width:0.163294"
     aria-label="firmware&#10;updater">
    <path
       style="font-size:6.53177px;line-height:3.26589px;font-family:'Petyka - Retro Computer___SHORT';-inkscape-font-specification:'Petyka - Retro Computer___SHORT'"
       d="m 26.76958,72.624615 h 4.720227 v 0.944045 h -3.776181 v 0.944046 h 2.832136 v 0.944045 h -2.832136 v 1.875334 H 26.76958 Z m 5.517563,0 h 4.720227 v 0.944045 h -1.888091 v 2.832137 h 1.888091 v 0.931288 h -4.720227 v -0.931288 h 1.888091 V 73.56866 h -1.888091 z m 5.517563,0 h 3.776182 v 0.944045 h -2.832136 v 0.944046 h 2.832136 v 0.944045 h -2.832136 v 1.875334 h -0.944046 z m 3.776182,0.944045 h 0.944045 v 0.944046 h -0.944045 z m 0,1.888091 h 0.944045 v 1.875334 h -0.944045 z m 1.741381,-2.832136 h 0.944045 v 0.944045 h 0.944046 v 0.944046 h -0.944046 v 2.819379 h -0.944045 z m 3.776182,0 h 0.944045 v 4.70747 H 47.098451 V 74.512706 H 46.154405 V 73.56866 h 0.944046 z m -1.888091,1.888091 h 0.944045 v 0.944045 H 45.21036 Z m 3.629472,-1.888091 h 0.944045 v 2.832136 h 0.944046 v 0.944046 h -0.944046 v 0.931288 h -0.944045 z m 3.776181,0 h 0.944046 v 4.70747 h -0.944046 v -0.931288 h -0.944045 v -0.944046 h 0.944045 z m -1.88809,1.888091 h 0.944045 v 0.944045 h -0.944045 z m 4.573517,-1.888091 h 2.832136 V 73.56866 H 55.30144 Z m -0.944045,0.944045 h 0.944045 v 0.944046 h 2.832136 V 73.56866 h 0.944046 v 3.763425 H 58.133576 V 75.456751 H 55.30144 v 1.875334 h -0.944045 z m 5.517563,-0.944045 h 3.776181 v 0.944045 h -2.832136 v 0.944046 h 2.832136 v 0.944045 h -2.832136 v 1.875334 h -0.944045 z m 3.776181,0.944045 h 0.944046 v 0.944046 h -0.944046 z m 0,1.888091 h 0.944046 v 1.875334 h -0.944046 z m 1.741381,-2.832136 h 4.720227 v 0.944045 h -3.776181 v 0.944046 h 2.832136 v 0.944045 h -2.832136 v 0.944046 h 3.776181 v 0.931288 H 65.39252 Z"
       id="path1" />
    <path
       style="font-size:6.53177px;line-height:3.26589px;font-family:'Petyka - Retro Computer___SHORT';-inkscape-font-specification:'Petyka - Retro Computer___SHORT'"
       d="m 26.76958,79.156388 h 0.944046 V 82.93257 H 26.76958 Z m 3.776182,0 h 0.944045 v 3.776182 h -0.944045 z m -2.832136,3.776182 h 2.832136 v 0.931288 h -2.832136 z m 4.573517,-3.776182 h 3.776182 v 0.944046 h -2.832136 v 0.944045 h 2.832136 v 0.944046 h -2.832136 v 1.875333 h -0.944046 z m 3.776182,0.944046 h 0.944045 v 0.944045 h -0.944045 z m 1.741381,-0.944046 h 3.776182 v 0.944046 h -2.832136 v 2.832136 h 2.832136 v 0.931288 h -3.776182 z m 3.776182,0.944046 h 0.944045 v 2.832136 h -0.944045 z m 2.685426,-0.944046 h 2.832137 v 0.944046 h -2.832137 z m -0.944045,0.944046 h 0.944045 v 0.944045 h 2.832137 v -0.944045 h 0.944045 v 3.763424 h -0.944045 v -1.875333 h -2.832137 v 1.875333 h -0.944045 z m 5.517563,-0.944046 h 4.720227 v 0.944046 h -1.888091 v 3.763424 h -0.944045 v -3.763424 h -1.888091 z m 5.517563,0 h 4.720227 v 0.944046 H 55.30144 v 0.944045 h 2.832136 v 0.944046 H 55.30144 v 0.944045 h 3.776182 v 0.931288 h -4.720227 z m 5.517563,0 h 3.776181 v 0.944046 h -2.832136 v 0.944045 h 2.832136 v 0.944046 h -2.832136 v 1.875333 h -0.944045 z m 3.776181,0.944046 h 0.944046 v 0.944045 h -0.944046 z m 0,1.888091 h 0.944046 v 1.875333 h -0.944046 z"
       id="path2" />
  </g>
</svg>
